<svg width="12" height="12" viewBox="0 0 12 12" fill="none" xmlns="http://www.w3.org/2000/svg">
<path fill-rule="evenodd" clip-rule="evenodd" d="M0.833334 6C0.833334 5.72386 1.05719 5.5 1.33333 5.5H10.6667C10.9428 5.5 11.1667 5.72386 11.1667 6C11.1667 6.27614 10.9428 6.5 10.6667 6.5H1.33333C1.05719 6.5 0.833334 6.27614 0.833334 6Z" fill="#3730A3"/>
<path fill-rule="evenodd" clip-rule="evenodd" d="M5.64645 0.979821C5.84171 0.784558 6.15829 0.784558 6.35355 0.979821L11.0202 5.64649C11.2155 5.84175 11.2155 6.15833 11.0202 6.35359L6.35355 11.0203C6.15829 11.2155 5.84171 11.2155 5.64645 11.0203C5.45118 10.825 5.45118 10.5084 5.64645 10.3132L9.95956 6.00004L5.64645 1.68693C5.45118 1.49167 5.45118 1.17508 5.64645 0.979821Z" fill="#3730A3"/>
</svg>
