<svg width="33" height="33" viewBox="0 0 33 33" fill="none" xmlns="http://www.w3.org/2000/svg">
<path fill-rule="evenodd" clip-rule="evenodd" d="M16.5 3.41675C9.27428 3.41675 3.41667 9.27436 3.41667 16.5001C3.41667 23.7258 9.27428 29.5834 16.5 29.5834C23.7257 29.5834 29.5833 23.7258 29.5833 16.5001C29.5833 9.27436 23.7257 3.41675 16.5 3.41675ZM0.416672 16.5001C0.416672 7.6175 7.61743 0.416748 16.5 0.416748C25.3826 0.416748 32.5833 7.6175 32.5833 16.5001C32.5833 25.3827 25.3826 32.5834 16.5 32.5834C7.61743 32.5834 0.416672 25.3827 0.416672 16.5001Z" fill="#6B7280"/>
<path fill-rule="evenodd" clip-rule="evenodd" d="M10.6031 1.79578C11.2739 1.30965 12.2118 1.45935 12.6979 2.13014C15.0167 5.32981 16.8394 8.05748 18.3602 10.8242C21.2877 9.59477 23.6978 7.85703 25.7579 5.44797C26.2963 4.81837 27.2432 4.74445 27.8728 5.28287C28.5024 5.82129 28.5763 6.76815 28.0379 7.39775C25.6728 10.1634 22.9294 12.1262 19.7305 13.5022C19.8189 13.6887 19.9062 13.8761 19.9926 14.0646C20.2065 14.531 20.4141 15.0028 20.6162 15.4822C23.7069 15.0424 27.2908 15.262 31.1039 16.2752C31.9046 16.488 32.3812 17.3095 32.1684 18.1101C31.9557 18.9108 31.1342 19.3874 30.3335 19.1746C27.1423 18.3267 24.2212 18.1132 21.7358 18.3675C22.7666 21.2534 23.6845 24.5055 24.6516 28.499C24.8466 29.3041 24.3519 30.1149 23.5468 30.3099C22.7416 30.5049 21.9309 30.0102 21.7359 29.2051C20.7321 25.0603 19.7988 21.7972 18.7564 18.9502C18.5611 19.0094 18.3702 19.0721 18.184 19.1382C14.7991 20.3455 11.4836 22.9272 8.05876 27.8037C7.58263 28.4816 6.64708 28.6452 5.96915 28.1691C5.29121 27.693 5.12761 26.7575 5.60373 26.0795C9.26601 20.8649 13.0377 17.7883 17.1774 16.3121L17.1795 16.3114C17.3314 16.2574 17.4853 16.2055 17.6411 16.1555C17.518 15.8726 17.393 15.5926 17.2657 15.315C17.1457 15.0535 17.0237 14.7938 16.8994 14.5355C12.7634 15.8021 7.94645 16.319 2.31713 16.4537C1.48894 16.4735 0.801491 15.8182 0.781673 14.99C0.761854 14.1618 1.41717 13.4744 2.24536 13.4545C7.51704 13.3284 11.8531 12.8602 15.4844 11.8256C14.0966 9.35978 12.4219 6.86166 10.2687 3.89058C9.78261 3.21979 9.93231 2.28191 10.6031 1.79578Z" fill="#6B7280"/>
</svg>
