<svg width="33" height="33" viewBox="0 0 33 33" fill="none" xmlns="http://www.w3.org/2000/svg">
<path fill-rule="evenodd" clip-rule="evenodd" d="M15.6825 0.659083C16.1796 0.33597 16.8204 0.33597 17.3175 0.659083L31.9008 10.1382C32.3265 10.4149 32.5833 10.8882 32.5833 11.3959V21.6042C32.5833 22.112 32.3265 22.5852 31.9008 22.8619L17.3175 32.3411C16.8204 32.6642 16.1796 32.6642 15.6825 32.3411L1.09919 22.8619C0.673496 22.5852 0.416668 22.112 0.416668 21.6042V11.3959C0.416668 10.8882 0.673496 10.4149 1.09919 10.1382L15.6825 0.659083ZM3.41667 12.2099V20.7902L16.5 29.2944L29.5833 20.7902V12.2099L16.5 3.70578L3.41667 12.2099Z" fill="#6B7280"/>
<path fill-rule="evenodd" clip-rule="evenodd" d="M16.5 20.1042C17.3284 20.1042 18 20.7758 18 21.6042V31.0834C18 31.9118 17.3284 32.5834 16.5 32.5834C15.6716 32.5834 15 31.9118 15 31.0834V21.6042C15 20.7758 15.6716 20.1042 16.5 20.1042Z" fill="#6B7280"/>
<path fill-rule="evenodd" clip-rule="evenodd" d="M0.687819 10.5357C1.16289 9.85701 2.09819 9.69196 2.77686 10.167L16.5 19.7732L30.2231 10.167C30.9018 9.69196 31.8371 9.85701 32.3122 10.5357C32.7873 11.2144 32.6222 12.1497 31.9435 12.6247L17.3602 22.8331C16.8437 23.1946 16.1563 23.1946 15.6398 22.8331L1.05647 12.6247C0.3778 12.1497 0.212747 11.2144 0.687819 10.5357Z" fill="#6B7280"/>
<path fill-rule="evenodd" clip-rule="evenodd" d="M15.6398 10.1669C16.1563 9.80537 16.8437 9.80537 17.3602 10.1669L31.9435 20.3752C32.6222 20.8503 32.7873 21.7856 32.3122 22.4643C31.8371 23.143 30.9018 23.308 30.2231 22.8329L16.5 13.2267L2.77686 22.8329C2.09819 23.308 1.16289 23.143 0.687819 22.4643C0.212747 21.7856 0.3778 20.8503 1.05647 20.3752L15.6398 10.1669Z" fill="#6B7280"/>
<path fill-rule="evenodd" clip-rule="evenodd" d="M16.5 0.416748C17.3284 0.416748 18 1.08832 18 1.91675V11.3959C18 12.2243 17.3284 12.8959 16.5 12.8959C15.6716 12.8959 15 12.2243 15 11.3959V1.91675C15 1.08832 15.6716 0.416748 16.5 0.416748Z" fill="#6B7280"/>
</svg>
