<svg width="33" height="33" viewBox="0 0 33 33" fill="none" xmlns="http://www.w3.org/2000/svg">
<path fill-rule="evenodd" clip-rule="evenodd" d="M16.5 12.1667C14.1068 12.1667 12.1667 14.1068 12.1667 16.5001C12.1667 18.8933 14.1068 20.8334 16.5 20.8334C18.8932 20.8334 20.8333 18.8933 20.8333 16.5001C20.8333 14.1068 18.8932 12.1667 16.5 12.1667ZM9.16667 16.5001C9.16667 12.45 12.4499 9.16675 16.5 9.16675C20.5501 9.16675 23.8333 12.45 23.8333 16.5001C23.8333 20.5502 20.5501 23.8334 16.5 23.8334C12.4499 23.8334 9.16667 20.5502 9.16667 16.5001Z" fill="#6B7280"/>
<path fill-rule="evenodd" clip-rule="evenodd" d="M9.62815 1.95946C12.9101 0.408508 16.6202 0.0133852 20.1552 0.838344C23.6901 1.6633 26.8421 3.65982 29.0985 6.50327C31.3549 9.34672 32.5831 12.8699 32.5833 16.4998L32.5833 16.4999V17.9582C32.5833 19.5164 31.9644 21.0107 30.8626 22.1125C29.7608 23.2143 28.2665 23.8332 26.7083 23.8332C25.1502 23.8332 23.6559 23.2143 22.5541 22.1125C21.4523 21.0107 20.8333 19.5164 20.8333 17.9582V10.6666C20.8333 9.83815 21.5049 9.16658 22.3333 9.16658C23.1618 9.16658 23.8333 9.83815 23.8333 10.6666V17.9582C23.8333 18.7207 24.1362 19.452 24.6754 19.9912C25.2146 20.5303 25.9458 20.8332 26.7083 20.8332C27.4708 20.8332 28.2021 20.5303 28.7413 19.9912C29.2804 19.452 29.5833 18.7207 29.5833 17.9582V16.5C29.5833 16.5 29.5833 16.4999 29.5833 16.4999C29.5831 13.5471 28.584 10.6811 26.7485 8.3681C24.913 6.05504 22.349 4.43092 19.4734 3.75984C16.5978 3.08876 13.5797 3.41018 10.9099 4.67184C8.24018 5.9335 6.07572 8.0612 4.76851 10.709C3.4613 13.3567 3.08823 16.3688 3.70995 19.2555C4.33167 22.1422 5.91163 24.7337 8.19291 26.6085C10.4742 28.4834 13.3226 29.5315 16.2751 29.5822C19.2275 29.633 22.1103 28.6835 24.4547 26.8882C25.1124 26.3845 26.0539 26.5094 26.5576 27.1671C27.0613 27.8248 26.9364 28.7663 26.2787 29.27C23.3967 31.477 19.8529 32.6442 16.2235 32.5818C12.5941 32.5194 9.09247 31.231 6.28809 28.9262C3.48372 26.6214 1.54148 23.4357 0.7772 19.8871C0.0129178 16.3386 0.471537 12.6358 2.07849 9.38089C3.68544 6.12599 6.34621 3.51042 9.62815 1.95946Z" fill="#6B7280"/>
</svg>
