<svg width="33" height="33" viewBox="0 0 33 33" fill="none" xmlns="http://www.w3.org/2000/svg">
<path fill-rule="evenodd" clip-rule="evenodd" d="M9.20834 3.41675C6.00969 3.41675 3.41667 6.00977 3.41667 9.20841V23.7917C3.41667 26.9904 6.00969 29.5834 9.20834 29.5834H23.7917C26.9903 29.5834 29.5833 26.9904 29.5833 23.7917V9.20841C29.5833 6.00977 26.9903 3.41675 23.7917 3.41675H9.20834ZM0.416672 9.20841C0.416672 4.35291 4.35283 0.416748 9.20834 0.416748H23.7917C28.6472 0.416748 32.5833 4.35291 32.5833 9.20841V23.7917C32.5833 28.6472 28.6472 32.5834 23.7917 32.5834H9.20834C4.35283 32.5834 0.416672 28.6472 0.416672 23.7917V9.20841Z" fill="#6B7280"/>
<path fill-rule="evenodd" clip-rule="evenodd" d="M17.1987 12.1504C16.2971 12.0167 15.3763 12.1707 14.5673 12.5905C13.7583 13.0103 13.1022 13.6745 12.6924 14.4886C12.2826 15.3028 12.14 16.2254 12.2848 17.1253C12.4296 18.0252 12.8545 18.8565 13.499 19.501C14.1435 20.1455 14.9748 20.5704 15.8747 20.7152C16.7746 20.86 17.6972 20.7173 18.5113 20.3075C19.3255 19.8978 19.9897 19.2417 20.4095 18.4327C20.8293 17.6236 20.9833 16.7028 20.8496 15.8012C20.7132 14.8816 20.2847 14.0301 19.6272 13.3727C18.9698 12.7153 18.1184 12.2868 17.1987 12.1504ZM13.1856 9.92762C14.5547 9.21721 16.113 8.95659 17.6388 9.18284C19.1951 9.41363 20.636 10.1389 21.7486 11.2514C22.8611 12.364 23.5863 13.8048 23.8171 15.3612C24.0434 16.887 23.7828 18.4452 23.0723 19.8144C22.3619 21.1835 21.2379 22.2938 19.8601 22.9872C18.4823 23.6807 16.9209 23.9221 15.3981 23.6771C13.8752 23.432 12.4683 22.713 11.3777 21.6223C10.287 20.5316 9.56796 19.1248 9.32291 17.6019C9.07786 16.079 9.31924 14.5176 10.0127 13.1399C10.7062 11.7621 11.8165 10.638 13.1856 9.92762Z" fill="#6B7280"/>
<path fill-rule="evenodd" clip-rule="evenodd" d="M23.0208 8.47925C23.0208 7.65082 23.6924 6.97925 24.5208 6.97925H24.5354C25.3639 6.97925 26.0354 7.65082 26.0354 8.47925C26.0354 9.30768 25.3639 9.97925 24.5354 9.97925H24.5208C23.6924 9.97925 23.0208 9.30768 23.0208 8.47925Z" fill="#6B7280"/>
</svg>
